<svg width="80" height="112" viewBox="0 0 80 112" fill="none" xmlns="http://www.w3.org/2000/svg">
<rect width="8" height="4" transform="matrix(-1 0 0 1 28 48)" fill="#FCFCF4"/>
<rect width="8" height="4" transform="matrix(-1 0 0 1 52 48)" fill="#FCFCF4"/>
<path d="M32 20H36V32H56V24H60V20H56V16H64V20H68V72H64V76H60V80H68V76H72V72H80V80H76V84H72V88H68V92H60V112H20V108H12V84H16V80H20V72H4V60H0V52H8V56H12V36H16V32H24V24H28V20H24V16H32V20ZM20 52H28V48H20V52ZM44 52H52V48H44V52Z" fill="#333333"/>
<path d="M26 8H42V4H46V8H68V16H0V8H22V4H26V8ZM42 4H26V0H42V4Z" fill="#333333"/>
</svg>
