<svg width="56" height="24" viewBox="0 0 56 24" fill="none" xmlns="http://www.w3.org/2000/svg">
<rect width="8" height="8" transform="matrix(4.37114e-08 1 1 -4.37114e-08 4 12)" fill="#FCFCF4"/>
<rect width="8" height="8" transform="matrix(4.37114e-08 1 1 -4.37114e-08 44 12)" fill="#FCFCF4"/>
<rect width="8" height="8" transform="matrix(4.37114e-08 1 1 -4.37114e-08 4 4)" fill="#FCFCF4"/>
<rect width="8" height="8" transform="matrix(4.37114e-08 1 1 -4.37114e-08 44 4)" fill="#FCFCF4"/>
<rect width="8" height="8" transform="matrix(4.37114e-08 1 1 -4.37114e-08 12 8)" fill="#FCFCF4"/>
<rect width="8" height="8" transform="matrix(4.37114e-08 1 1 -4.37114e-08 20 8)" fill="#FCFCF4"/>
<rect width="8" height="8" transform="matrix(4.37114e-08 1 1 -4.37114e-08 28 8)" fill="#FCFCF4"/>
<rect width="8" height="8" transform="matrix(4.37114e-08 1 1 -4.37114e-08 36 8)" fill="#FCFCF4"/>
<rect width="4" height="4" transform="matrix(4.37114e-08 1 1 -4.37114e-08 44 20)" fill="#333333"/>
<rect width="4" height="4" transform="matrix(4.37114e-08 1 1 -4.37114e-08 40 18)" fill="#333333"/>
<rect width="4" height="4" transform="matrix(4.37114e-08 1 1 -4.37114e-08 40 2)" fill="#333333"/>
<rect width="4" height="4" transform="matrix(4.37114e-08 1 1 -4.37114e-08 12 2)" fill="#333333"/>
<rect width="4" height="4" transform="matrix(4.37114e-08 1 1 -4.37114e-08 12 18)" fill="#333333"/>
<rect width="4" height="4" transform="matrix(4.37114e-08 1 1 -4.37114e-08 4 20)" fill="#333333"/>
<rect width="4" height="4" transform="matrix(4.37114e-08 1 1 -4.37114e-08 44 2.44784e-06)" fill="#333333"/>
<rect width="4" height="4" transform="matrix(4.37114e-08 1 1 -4.37114e-08 16 6)" fill="#333333"/>
<rect width="4" height="4" transform="matrix(4.37114e-08 1 1 -4.37114e-08 20 14)" fill="#333333"/>
<rect width="4" height="4" transform="matrix(4.37114e-08 1 1 -4.37114e-08 24 6)" fill="#333333"/>
<rect width="4" height="4" transform="matrix(4.37114e-08 1 1 -4.37114e-08 28 14)" fill="#333333"/>
<rect width="4" height="4" transform="matrix(4.37114e-08 1 1 -4.37114e-08 32 6)" fill="#333333"/>
<rect width="4" height="4" transform="matrix(4.37114e-08 1 1 -4.37114e-08 36 14)" fill="#333333"/>
<rect width="4" height="4" transform="matrix(4.37114e-08 1 1 -4.37114e-08 48 20)" fill="#333333"/>
<rect width="4" height="4" transform="matrix(4.37114e-08 1 1 -4.37114e-08 52 18)" fill="#333333"/>
<rect width="4" height="4" transform="matrix(4.37114e-08 1 1 -4.37114e-08 52 14)" fill="#333333"/>
<rect width="4" height="4" transform="matrix(4.37114e-08 1 1 -4.37114e-08 52 2)" fill="#333333"/>
<rect width="4" height="4" transform="matrix(4.37114e-08 1 1 -4.37114e-08 52 6)" fill="#333333"/>
<rect width="4" height="4" transform="matrix(4.37114e-08 1 1 -4.37114e-08 48 12)" fill="#333333"/>
<rect width="4" height="4" transform="matrix(4.37114e-08 1 1 -4.37114e-08 48 8)" fill="#333333"/>
<rect width="4" height="4" transform="matrix(4.37114e-08 1 1 -4.37114e-08 8 20)" fill="#333333"/>
<rect width="4" height="4" transform="matrix(4.37114e-08 1 1 -4.37114e-08 48 2.44784e-06)" fill="#333333"/>
<rect width="4" height="4" transform="matrix(4.37114e-08 1 1 -4.37114e-08 20 6)" fill="#333333"/>
<rect width="4" height="4" transform="matrix(4.37114e-08 1 1 -4.37114e-08 24 14)" fill="#333333"/>
<rect width="4" height="4" transform="matrix(4.37114e-08 1 1 -4.37114e-08 28 6)" fill="#333333"/>
<rect width="4" height="4" transform="matrix(4.37114e-08 1 1 -4.37114e-08 32 14)" fill="#333333"/>
<rect width="4" height="4" transform="matrix(4.37114e-08 1 1 -4.37114e-08 36 6)" fill="#333333"/>
<rect width="4" height="4" transform="matrix(4.37114e-08 1 1 -4.37114e-08 40 6)" fill="#333333"/>
<rect width="4" height="4" transform="matrix(4.37114e-08 1 1 -4.37114e-08 40 14)" fill="#333333"/>
<rect width="4" height="4" transform="matrix(4.37114e-08 1 1 -4.37114e-08 1.04907e-06 18)" fill="#333333"/>
<rect width="4" height="4" transform="matrix(4.37114e-08 1 1 -4.37114e-08 1.04907e-06 14)" fill="#333333"/>
<rect width="4" height="4" transform="matrix(4.37114e-08 1 1 -4.37114e-08 4 12)" fill="#333333"/>
<rect width="4" height="4" transform="matrix(4.37114e-08 1 1 -4.37114e-08 4 8)" fill="#333333"/>
<rect width="4" height="4" transform="matrix(4.37114e-08 1 1 -4.37114e-08 1.04907e-06 6)" fill="#333333"/>
<rect width="4" height="4" transform="matrix(4.37114e-08 1 1 -4.37114e-08 1.04907e-06 2)" fill="#333333"/>
<rect width="4" height="4" transform="matrix(4.37114e-08 1 1 -4.37114e-08 4 2.44784e-06)" fill="#333333"/>
<rect width="4" height="4" transform="matrix(4.37114e-08 1 1 -4.37114e-08 8 2.44784e-06)" fill="#333333"/>
<rect width="4" height="4" transform="matrix(4.37114e-08 1 1 -4.37114e-08 12 6)" fill="#333333"/>
<rect width="4" height="4" transform="matrix(4.37114e-08 1 1 -4.37114e-08 12 14)" fill="#333333"/>
<rect width="4" height="4" transform="matrix(4.37114e-08 1 1 -4.37114e-08 16 14)" fill="#333333"/>
</svg>
