<svg width="960" height="76" viewBox="0 0 960 76" fill="none" xmlns="http://www.w3.org/2000/svg">
<rect width="960" height="4" fill="#333333"/>
<rect x="12" y="4" width="4" height="4" fill="#333333"/>
<rect x="8" y="8" width="4" height="4" fill="#333333"/>
<rect x="4" y="12" width="4" height="4" fill="#333333"/>
<rect y="16" width="4" height="4" fill="#333333"/>
<rect x="332" y="4" width="4" height="4" fill="#333333"/>
<rect x="328" y="8" width="4" height="4" fill="#333333"/>
<rect x="324" y="12" width="4" height="4" fill="#333333"/>
<rect x="320" y="16" width="4" height="4" fill="#333333"/>
<rect x="652" y="4" width="4" height="4" fill="#333333"/>
<rect x="648" y="8" width="4" height="4" fill="#333333"/>
<rect x="644" y="12" width="4" height="4" fill="#333333"/>
<rect x="640" y="16" width="4" height="4" fill="#333333"/>
<rect x="172" y="4" width="4" height="4" fill="#333333"/>
<rect x="168" y="8" width="4" height="4" fill="#333333"/>
<rect x="164" y="12" width="4" height="4" fill="#333333"/>
<rect x="160" y="16" width="4" height="4" fill="#333333"/>
<rect x="492" y="4" width="4" height="4" fill="#333333"/>
<rect x="488" y="8" width="4" height="4" fill="#333333"/>
<rect x="484" y="12" width="4" height="4" fill="#333333"/>
<rect x="480" y="16" width="4" height="4" fill="#333333"/>
<rect x="812" y="4" width="4" height="4" fill="#333333"/>
<rect x="808" y="8" width="4" height="4" fill="#333333"/>
<rect x="804" y="12" width="4" height="4" fill="#333333"/>
<rect x="800" y="16" width="4" height="4" fill="#333333"/>
<rect x="92" y="4" width="4" height="4" fill="#333333"/>
<rect x="88" y="8" width="4" height="4" fill="#333333"/>
<rect x="84" y="12" width="4" height="4" fill="#333333"/>
<rect x="80" y="16" width="4" height="4" fill="#333333"/>
<rect x="412" y="4" width="4" height="4" fill="#333333"/>
<rect x="408" y="8" width="4" height="4" fill="#333333"/>
<rect x="404" y="12" width="4" height="4" fill="#333333"/>
<rect x="400" y="16" width="4" height="4" fill="#333333"/>
<rect x="732" y="4" width="4" height="4" fill="#333333"/>
<rect x="728" y="8" width="4" height="4" fill="#333333"/>
<rect x="724" y="12" width="4" height="4" fill="#333333"/>
<rect x="720" y="16" width="4" height="4" fill="#333333"/>
<rect x="252" y="4" width="4" height="4" fill="#333333"/>
<rect x="248" y="8" width="4" height="4" fill="#333333"/>
<rect x="244" y="12" width="4" height="4" fill="#333333"/>
<rect x="240" y="16" width="4" height="4" fill="#333333"/>
<rect x="572" y="4" width="4" height="4" fill="#333333"/>
<rect x="568" y="8" width="4" height="4" fill="#333333"/>
<rect x="564" y="12" width="4" height="4" fill="#333333"/>
<rect x="560" y="16" width="4" height="4" fill="#333333"/>
<rect x="892" y="4" width="4" height="4" fill="#333333"/>
<rect x="888" y="8" width="4" height="4" fill="#333333"/>
<rect x="884" y="12" width="4" height="4" fill="#333333"/>
<rect x="880" y="16" width="4" height="4" fill="#333333"/>
<rect x="28" y="4" width="4" height="4" fill="#333333"/>
<rect x="24" y="8" width="4" height="4" fill="#333333"/>
<rect x="20" y="12" width="4" height="4" fill="#333333"/>
<rect x="16" y="16" width="4" height="4" fill="#333333"/>
<rect x="348" y="4" width="4" height="4" fill="#333333"/>
<rect x="344" y="8" width="4" height="4" fill="#333333"/>
<rect x="340" y="12" width="4" height="4" fill="#333333"/>
<rect x="336" y="16" width="4" height="4" fill="#333333"/>
<rect x="668" y="4" width="4" height="4" fill="#333333"/>
<rect x="664" y="8" width="4" height="4" fill="#333333"/>
<rect x="660" y="12" width="4" height="4" fill="#333333"/>
<rect x="656" y="16" width="4" height="4" fill="#333333"/>
<rect x="188" y="4" width="4" height="4" fill="#333333"/>
<rect x="184" y="8" width="4" height="4" fill="#333333"/>
<rect x="180" y="12" width="4" height="4" fill="#333333"/>
<rect x="176" y="16" width="4" height="4" fill="#333333"/>
<rect x="508" y="4" width="4" height="4" fill="#333333"/>
<rect x="504" y="8" width="4" height="4" fill="#333333"/>
<rect x="500" y="12" width="4" height="4" fill="#333333"/>
<rect x="496" y="16" width="4" height="4" fill="#333333"/>
<rect x="828" y="4" width="4" height="4" fill="#333333"/>
<rect x="824" y="8" width="4" height="4" fill="#333333"/>
<rect x="820" y="12" width="4" height="4" fill="#333333"/>
<rect x="816" y="16" width="4" height="4" fill="#333333"/>
<rect x="108" y="4" width="4" height="4" fill="#333333"/>
<rect x="104" y="8" width="4" height="4" fill="#333333"/>
<rect x="100" y="12" width="4" height="4" fill="#333333"/>
<rect x="96" y="16" width="4" height="4" fill="#333333"/>
<rect x="428" y="4" width="4" height="4" fill="#333333"/>
<rect x="424" y="8" width="4" height="4" fill="#333333"/>
<rect x="420" y="12" width="4" height="4" fill="#333333"/>
<rect x="416" y="16" width="4" height="4" fill="#333333"/>
<rect x="748" y="4" width="4" height="4" fill="#333333"/>
<rect x="744" y="8" width="4" height="4" fill="#333333"/>
<rect x="740" y="12" width="4" height="4" fill="#333333"/>
<rect x="736" y="16" width="4" height="4" fill="#333333"/>
<rect x="268" y="4" width="4" height="4" fill="#333333"/>
<rect x="264" y="8" width="4" height="4" fill="#333333"/>
<rect x="260" y="12" width="4" height="4" fill="#333333"/>
<rect x="256" y="16" width="4" height="4" fill="#333333"/>
<rect x="588" y="4" width="4" height="4" fill="#333333"/>
<rect x="584" y="8" width="4" height="4" fill="#333333"/>
<rect x="580" y="12" width="4" height="4" fill="#333333"/>
<rect x="576" y="16" width="4" height="4" fill="#333333"/>
<rect x="908" y="4" width="4" height="4" fill="#333333"/>
<rect x="904" y="8" width="4" height="4" fill="#333333"/>
<rect x="900" y="12" width="4" height="4" fill="#333333"/>
<rect x="896" y="16" width="4" height="4" fill="#333333"/>
<rect x="44" y="4" width="4" height="4" fill="#333333"/>
<rect x="40" y="8" width="4" height="4" fill="#333333"/>
<rect x="36" y="12" width="4" height="4" fill="#333333"/>
<rect x="32" y="16" width="4" height="4" fill="#333333"/>
<rect x="364" y="4" width="4" height="4" fill="#333333"/>
<rect x="360" y="8" width="4" height="4" fill="#333333"/>
<rect x="356" y="12" width="4" height="4" fill="#333333"/>
<rect x="352" y="16" width="4" height="4" fill="#333333"/>
<rect x="684" y="4" width="4" height="4" fill="#333333"/>
<rect x="680" y="8" width="4" height="4" fill="#333333"/>
<rect x="676" y="12" width="4" height="4" fill="#333333"/>
<rect x="672" y="16" width="4" height="4" fill="#333333"/>
<rect x="204" y="4" width="4" height="4" fill="#333333"/>
<rect x="200" y="8" width="4" height="4" fill="#333333"/>
<rect x="196" y="12" width="4" height="4" fill="#333333"/>
<rect x="192" y="16" width="4" height="4" fill="#333333"/>
<rect x="524" y="4" width="4" height="4" fill="#333333"/>
<rect x="520" y="8" width="4" height="4" fill="#333333"/>
<rect x="516" y="12" width="4" height="4" fill="#333333"/>
<rect x="512" y="16" width="4" height="4" fill="#333333"/>
<rect x="844" y="4" width="4" height="4" fill="#333333"/>
<rect x="840" y="8" width="4" height="4" fill="#333333"/>
<rect x="836" y="12" width="4" height="4" fill="#333333"/>
<rect x="832" y="16" width="4" height="4" fill="#333333"/>
<rect x="124" y="4" width="4" height="4" fill="#333333"/>
<rect x="120" y="8" width="4" height="4" fill="#333333"/>
<rect x="116" y="12" width="4" height="4" fill="#333333"/>
<rect x="112" y="16" width="4" height="4" fill="#333333"/>
<rect x="444" y="4" width="4" height="4" fill="#333333"/>
<rect x="440" y="8" width="4" height="4" fill="#333333"/>
<rect x="436" y="12" width="4" height="4" fill="#333333"/>
<rect x="432" y="16" width="4" height="4" fill="#333333"/>
<rect x="764" y="4" width="4" height="4" fill="#333333"/>
<rect x="760" y="8" width="4" height="4" fill="#333333"/>
<rect x="756" y="12" width="4" height="4" fill="#333333"/>
<rect x="752" y="16" width="4" height="4" fill="#333333"/>
<rect x="284" y="4" width="4" height="4" fill="#333333"/>
<rect x="280" y="8" width="4" height="4" fill="#333333"/>
<rect x="276" y="12" width="4" height="4" fill="#333333"/>
<rect x="272" y="16" width="4" height="4" fill="#333333"/>
<rect x="604" y="4" width="4" height="4" fill="#333333"/>
<rect x="600" y="8" width="4" height="4" fill="#333333"/>
<rect x="596" y="12" width="4" height="4" fill="#333333"/>
<rect x="592" y="16" width="4" height="4" fill="#333333"/>
<rect x="924" y="4" width="4" height="4" fill="#333333"/>
<rect x="920" y="8" width="4" height="4" fill="#333333"/>
<rect x="916" y="12" width="4" height="4" fill="#333333"/>
<rect x="912" y="16" width="4" height="4" fill="#333333"/>
<rect x="60" y="4" width="4" height="4" fill="#333333"/>
<rect x="56" y="8" width="4" height="4" fill="#333333"/>
<rect x="52" y="12" width="4" height="4" fill="#333333"/>
<rect x="48" y="16" width="4" height="4" fill="#333333"/>
<rect x="380" y="4" width="4" height="4" fill="#333333"/>
<rect x="376" y="8" width="4" height="4" fill="#333333"/>
<rect x="372" y="12" width="4" height="4" fill="#333333"/>
<rect x="368" y="16" width="4" height="4" fill="#333333"/>
<rect x="700" y="4" width="4" height="4" fill="#333333"/>
<rect x="696" y="8" width="4" height="4" fill="#333333"/>
<rect x="692" y="12" width="4" height="4" fill="#333333"/>
<rect x="688" y="16" width="4" height="4" fill="#333333"/>
<rect x="220" y="4" width="4" height="4" fill="#333333"/>
<rect x="216" y="8" width="4" height="4" fill="#333333"/>
<rect x="212" y="12" width="4" height="4" fill="#333333"/>
<rect x="208" y="16" width="4" height="4" fill="#333333"/>
<rect x="540" y="4" width="4" height="4" fill="#333333"/>
<rect x="536" y="8" width="4" height="4" fill="#333333"/>
<rect x="532" y="12" width="4" height="4" fill="#333333"/>
<rect x="528" y="16" width="4" height="4" fill="#333333"/>
<rect x="860" y="4" width="4" height="4" fill="#333333"/>
<rect x="856" y="8" width="4" height="4" fill="#333333"/>
<rect x="852" y="12" width="4" height="4" fill="#333333"/>
<rect x="848" y="16" width="4" height="4" fill="#333333"/>
<rect x="140" y="4" width="4" height="4" fill="#333333"/>
<rect x="136" y="8" width="4" height="4" fill="#333333"/>
<rect x="132" y="12" width="4" height="4" fill="#333333"/>
<rect x="128" y="16" width="4" height="4" fill="#333333"/>
<rect x="460" y="4" width="4" height="4" fill="#333333"/>
<rect x="456" y="8" width="4" height="4" fill="#333333"/>
<rect x="452" y="12" width="4" height="4" fill="#333333"/>
<rect x="448" y="16" width="4" height="4" fill="#333333"/>
<rect x="780" y="4" width="4" height="4" fill="#333333"/>
<rect x="776" y="8" width="4" height="4" fill="#333333"/>
<rect x="772" y="12" width="4" height="4" fill="#333333"/>
<rect x="768" y="16" width="4" height="4" fill="#333333"/>
<rect x="300" y="4" width="4" height="4" fill="#333333"/>
<rect x="296" y="8" width="4" height="4" fill="#333333"/>
<rect x="292" y="12" width="4" height="4" fill="#333333"/>
<rect x="288" y="16" width="4" height="4" fill="#333333"/>
<rect x="620" y="4" width="4" height="4" fill="#333333"/>
<rect x="616" y="8" width="4" height="4" fill="#333333"/>
<rect x="612" y="12" width="4" height="4" fill="#333333"/>
<rect x="608" y="16" width="4" height="4" fill="#333333"/>
<rect x="940" y="4" width="4" height="4" fill="#333333"/>
<rect x="936" y="8" width="4" height="4" fill="#333333"/>
<rect x="932" y="12" width="4" height="4" fill="#333333"/>
<rect x="928" y="16" width="4" height="4" fill="#333333"/>
<rect x="76" y="4" width="4" height="4" fill="#333333"/>
<rect x="72" y="8" width="4" height="4" fill="#333333"/>
<rect x="68" y="12" width="4" height="4" fill="#333333"/>
<rect x="64" y="16" width="4" height="4" fill="#333333"/>
<rect x="396" y="4" width="4" height="4" fill="#333333"/>
<rect x="392" y="8" width="4" height="4" fill="#333333"/>
<rect x="388" y="12" width="4" height="4" fill="#333333"/>
<rect x="384" y="16" width="4" height="4" fill="#333333"/>
<rect x="716" y="4" width="4" height="4" fill="#333333"/>
<rect x="712" y="8" width="4" height="4" fill="#333333"/>
<rect x="708" y="12" width="4" height="4" fill="#333333"/>
<rect x="704" y="16" width="4" height="4" fill="#333333"/>
<rect x="236" y="4" width="4" height="4" fill="#333333"/>
<rect x="232" y="8" width="4" height="4" fill="#333333"/>
<rect x="228" y="12" width="4" height="4" fill="#333333"/>
<rect x="224" y="16" width="4" height="4" fill="#333333"/>
<rect x="556" y="4" width="4" height="4" fill="#333333"/>
<rect x="552" y="8" width="4" height="4" fill="#333333"/>
<rect x="548" y="12" width="4" height="4" fill="#333333"/>
<rect x="544" y="16" width="4" height="4" fill="#333333"/>
<rect x="876" y="4" width="4" height="4" fill="#333333"/>
<rect x="872" y="8" width="4" height="4" fill="#333333"/>
<rect x="868" y="12" width="4" height="4" fill="#333333"/>
<rect x="864" y="16" width="4" height="4" fill="#333333"/>
<rect x="156" y="4" width="4" height="4" fill="#333333"/>
<rect x="152" y="8" width="4" height="4" fill="#333333"/>
<rect x="148" y="12" width="4" height="4" fill="#333333"/>
<rect x="144" y="16" width="4" height="4" fill="#333333"/>
<rect x="476" y="4" width="4" height="4" fill="#333333"/>
<rect x="472" y="8" width="4" height="4" fill="#333333"/>
<rect x="468" y="12" width="4" height="4" fill="#333333"/>
<rect x="464" y="16" width="4" height="4" fill="#333333"/>
<rect x="796" y="4" width="4" height="4" fill="#333333"/>
<rect x="792" y="8" width="4" height="4" fill="#333333"/>
<rect x="788" y="12" width="4" height="4" fill="#333333"/>
<rect x="784" y="16" width="4" height="4" fill="#333333"/>
<rect x="316" y="4" width="4" height="4" fill="#333333"/>
<rect x="312" y="8" width="4" height="4" fill="#333333"/>
<rect x="308" y="12" width="4" height="4" fill="#333333"/>
<rect x="304" y="16" width="4" height="4" fill="#333333"/>
<rect x="636" y="4" width="4" height="4" fill="#333333"/>
<rect x="632" y="8" width="4" height="4" fill="#333333"/>
<rect x="628" y="12" width="4" height="4" fill="#333333"/>
<rect x="624" y="16" width="4" height="4" fill="#333333"/>
<rect x="956" y="4" width="4" height="4" fill="#333333"/>
<rect x="952" y="8" width="4" height="4" fill="#333333"/>
<rect x="948" y="12" width="4" height="4" fill="#333333"/>
<rect x="944" y="16" width="4" height="4" fill="#333333"/>
<rect x="12" y="36" width="4" height="4" fill="#333333"/>
<rect x="28" y="56" width="4" height="4" fill="#333333"/>
<rect x="268" y="36" width="4" height="4" fill="#333333"/>
<rect x="284" y="56" width="4" height="4" fill="#333333"/>
<rect x="652" y="36" width="4" height="4" fill="#333333"/>
<rect x="668" y="56" width="4" height="4" fill="#333333"/>
<rect x="140" y="36" width="4" height="4" fill="#333333"/>
<rect x="156" y="56" width="4" height="4" fill="#333333"/>
<rect x="524" y="36" width="4" height="4" fill="#333333"/>
<rect x="540" y="56" width="4" height="4" fill="#333333"/>
<rect x="396" y="36" width="4" height="4" fill="#333333"/>
<rect x="412" y="56" width="4" height="4" fill="#333333"/>
<rect x="780" y="36" width="4" height="4" fill="#333333"/>
<rect x="796" y="56" width="4" height="4" fill="#333333"/>
<rect x="76" y="36" width="4" height="4" fill="#333333"/>
<rect x="92" y="56" width="4" height="4" fill="#333333"/>
<rect x="332" y="36" width="4" height="4" fill="#333333"/>
<rect x="348" y="56" width="4" height="4" fill="#333333"/>
<rect x="716" y="36" width="4" height="4" fill="#333333"/>
<rect x="732" y="56" width="4" height="4" fill="#333333"/>
<rect x="204" y="36" width="4" height="4" fill="#333333"/>
<rect x="220" y="56" width="4" height="4" fill="#333333"/>
<rect x="588" y="36" width="4" height="4" fill="#333333"/>
<rect x="604" y="56" width="4" height="4" fill="#333333"/>
<rect x="460" y="36" width="4" height="4" fill="#333333"/>
<rect x="476" y="56" width="4" height="4" fill="#333333"/>
<rect x="844" y="36" width="4" height="4" fill="#333333"/>
<rect x="860" y="56" width="4" height="4" fill="#333333"/>
<rect x="908" y="36" width="4" height="4" fill="#333333"/>
<rect x="924" y="56" width="4" height="4" fill="#333333"/>
<rect x="44" y="36" width="4" height="4" fill="#333333"/>
<rect x="60" y="56" width="4" height="4" fill="#333333"/>
<rect x="300" y="36" width="4" height="4" fill="#333333"/>
<rect x="316" y="56" width="4" height="4" fill="#333333"/>
<rect x="684" y="36" width="4" height="4" fill="#333333"/>
<rect x="700" y="56" width="4" height="4" fill="#333333"/>
<rect x="172" y="36" width="4" height="4" fill="#333333"/>
<rect x="188" y="56" width="4" height="4" fill="#333333"/>
<rect x="556" y="36" width="4" height="4" fill="#333333"/>
<rect x="572" y="56" width="4" height="4" fill="#333333"/>
<rect x="428" y="36" width="4" height="4" fill="#333333"/>
<rect x="444" y="56" width="4" height="4" fill="#333333"/>
<rect x="812" y="36" width="4" height="4" fill="#333333"/>
<rect x="828" y="56" width="4" height="4" fill="#333333"/>
<rect x="108" y="36" width="4" height="4" fill="#333333"/>
<rect x="124" y="56" width="4" height="4" fill="#333333"/>
<rect x="364" y="36" width="4" height="4" fill="#333333"/>
<rect x="380" y="56" width="4" height="4" fill="#333333"/>
<rect x="748" y="36" width="4" height="4" fill="#333333"/>
<rect x="764" y="56" width="4" height="4" fill="#333333"/>
<rect x="236" y="36" width="4" height="4" fill="#333333"/>
<rect x="252" y="56" width="4" height="4" fill="#333333"/>
<rect x="620" y="36" width="4" height="4" fill="#333333"/>
<rect x="636" y="56" width="4" height="4" fill="#333333"/>
<rect x="876" y="36" width="4" height="4" fill="#333333"/>
<rect x="892" y="56" width="4" height="4" fill="#333333"/>
<rect x="492" y="36" width="4" height="4" fill="#333333"/>
<rect x="508" y="56" width="4" height="4" fill="#333333"/>
<rect x="940" y="36" width="4" height="4" fill="#333333"/>
<rect x="956" y="56" width="4" height="4" fill="#333333"/>
</svg>
