<svg width="960" height="84" viewBox="0 0 960 84" fill="none" xmlns="http://www.w3.org/2000/svg">
<path d="M468 12H472V16H512V12H516V8H564V12H568V16H580V20H584V24H588V28H592V32H584V36H580V40H572V44H568V48H548V52H544V56H520V52H516V48H496V44H492V40H460V44H456V48H432V44H428V40H420V36H416V32H412V28H408V24H416V20H420V16H432V12H436V8H468V12Z" fill="#E4E4E4"/>
<path d="M760 24H764V28H776V32H780V36H788V40H784V44H780V48H776V52H768V56H764V60H740V56H736V52H704V48H700V44H692V40H696V36H716V32H720V28H724V24H728V20H760V24Z" fill="#E4E4E4"/>
</svg>
